C:\GBW_MyPrograms\KinderuniversiteitApp\Resultaten\Ellis_v10102025\Jullie\Jullie_v1.mot
version=1
nRows=11
nColumns=29
inDegrees=yes
endheader
                time	         pelvis_tilt	           pelvis_tx	           pelvis_ty	       hip_flexion_l	       hip_flexion_r	        knee_angle_l	        knee_angle_r	       ankle_angle_l	       ankle_angle_r	    lumbar_extension	hamstrings_r/activation	bifemsh_r/activation	glut_max_r/activation	iliopsoas_r/activation	rect_fem_r/activation	  vasti_r/activation	gastroc_r/activation	 soleus_r/activation	tib_ant_r/activation	hamstrings_l/activation	bifemsh_l/activation	glut_max_l/activation	iliopsoas_l/activation	rect_fem_l/activation	  vasti_l/activation	gastroc_l/activation	 soleus_l/activation	tib_ant_l/activation	
          0.00000000	         -8.13915761	          0.00000000	          0.89229474	         -9.10113708	         30.46056066	        -10.65668649	         -7.93600143	          5.31711901	          9.19813369	          1.90792228	          0.26200271	          0.05000008	          0.05057492	          0.05000002	          0.06690999	          0.07879223	          0.05592245	          0.05148713	          0.24606614	          0.05000004	          0.14853079	          0.05000000	          0.60454401	          0.05000002	          0.05000000	          0.17077443	          0.29173710	          0.05000000	
          0.00940831	         -8.15309051	          0.01533232	          0.89178674	         -8.41218870	         29.62195637	        -13.60598849	         -7.87195490	          4.49511089	          8.94622770	          2.25898229	          0.22648821	          0.05000026	          0.07602157	          0.05000006	          0.05784033	          0.07962843	          0.06501899	          0.06331315	          0.23853769	          0.05000000	          0.12839741	          0.05000002	          0.52259798	          0.05000004	          0.05000000	          0.14762593	          0.25219209	          0.05000000	
          0.01881662	         -8.16413423	          0.03073144	          0.89124656	         -7.51721394	         28.76073516	        -16.88715020	         -8.12039584	          3.39494662	          8.67510780	          2.61722566	          0.19867857	          0.06691003	          0.14164555	          0.05000000	          0.05000007	          0.09391930	          0.05784028	          0.05473111	          0.26924405	          0.05000051	          0.11099312	          0.05227963	          0.45175973	          0.05000000	          0.05000000	          0.12761521	          0.21800740	          0.05000000	
          0.02822493	         -8.17680432	          0.04591533	          0.89086456	         -6.38870716	         27.92064939	        -20.47886954	         -8.36992912	          1.94897642	          8.36056492	          2.95186872	          0.17174767	          0.05784044	          0.18738042	          0.05000000	          0.05000000	          0.15810368	          0.05000003	          0.05000000	          0.30057410	          0.05000001	          0.09594799	          0.06137201	          0.39052361	          0.05187091	          0.05050036	          0.11031694	          0.18845646	          0.21936284	
          0.03763324	         -8.19460946	          0.06058283	          0.89076780	         -5.04194046	         27.17567641	        -24.29498740	         -8.70276453	          0.33099544	          8.00025711	          3.22857740	          0.14846726	          0.05000020	          0.22836683	          0.05000000	          0.05000001	          0.22285565	          0.05000001	          0.05000001	          0.32527616	          0.05000004	          0.08294223	          0.05426611	          0.33758807	          0.13214180	          0.05000000	          0.09536346	          0.16291115	          0.23996291	
          0.04704155	         -8.22009278	          0.07461475	          0.89102730	         -3.58314230	         26.52107118	        -28.01951807	         -9.11279516	         -0.31937635	          7.71315202	          3.43548985	          0.12952579	          0.05000010	          0.22730108	          0.05000000	          0.05000002	          0.25746542	          0.05000001	          0.05000001	          0.33510918	          0.05000002	          0.07169943	          0.05000000	          0.29182794	          0.21358266	          0.05000000	          0.08243693	          0.14082851	          0.27323813	
          0.05644986	         -8.25234824	          0.08808338	          0.89176701	         -2.09894291	         25.90478893	        -31.39059435	         -9.52095289	         -0.36634064	          7.52213104	          3.58148963	          0.11980684	          0.05000017	          0.22354502	          0.05000000	          0.05000002	          0.27207944	          0.05000003	          0.05000004	          0.33228779	          0.05161228	          0.12185347	          0.05000000	          0.25227061	          0.28477471	          0.05000000	          0.07126260	          0.12173918	          0.30859448	
          0.06585817	         -8.29006375	          0.10110890	          0.89299186	         -0.63910154	         25.27388695	        -34.28711419	         -9.85075448	         -0.12914955	          7.44143120	          3.68087564	          0.11258074	          0.05000027	          0.21028127	          0.05000000	          0.05000002	          0.26759635	          0.05000004	          0.05000006	          0.32437295	          0.06265443	          0.15591455	          0.05000000	          0.21807529	          0.34529845	          0.05000000	          0.07223299	          0.10523741	          0.30002498	
          0.07526647	         -8.33121848	          0.11380121	          0.89462435	          0.77322595	         24.59197782	        -36.67866915	        -10.04985518	          0.25740184	          7.43853328	          3.74541689	          0.10930158	          0.05000034	          0.19468502	          0.05000000	          0.05000002	          0.25415002	          0.05000006	          0.05000009	          0.31253319	          0.07593170	          0.21065757	          0.05000000	          0.18851516	          0.38665458	          0.05000000	          0.07254985	          0.09097246	          0.28785204	
          0.08467478	         -8.37379809	          0.12623962	          0.89655313	          2.13670098	         23.84472816	        -38.59945526	        -10.10290302	          0.73311399	          7.48729196	          3.78270438	          0.10790791	          0.05000031	          0.17845811	          0.05000000	          0.05000002	          0.23638617	          0.05000005	          0.05000007	          0.29977435	          0.08054319	          0.26340753	          0.05000000	          0.16593254	          0.40978717	          0.05000000	          0.07253418	          0.07864113	          0.27282971	
          0.09408309	         -8.41595169	          0.13847416	          0.89866479	          3.46210582	         23.03288732	        -40.11571937	        -10.01776330	          1.27952915	          7.56040882	          3.79663525	          0.10772918	          0.05000022	          0.16692938	          0.05000000	          0.05000001	          0.21829934	          0.05000004	          0.05000006	          0.28721102	          0.07339608	          0.32000784	          0.05000000	          0.15052133	          0.41680251	          0.05000000	          0.06783450	          0.06798131	          0.25568922	
